<?xml version="1.0" standalone="no"?>
<!DOCTYPE svg PUBLIC "-//W3C//DTD SVG 20010904//EN"
 "http://www.w3.org/TR/2001/REC-SVG-20010904/DTD/svg10.dtd">
<svg version="1.0" xmlns="http://www.w3.org/2000/svg"
 width="512.000000pt" height="512.000000pt" viewBox="0 0 512.000000 512.000000"
 preserveAspectRatio="xMidYMid meet">
<metadata>
Created by potrace 1.14, written by Peter Selinger 2001-2017
</metadata>
<g transform="translate(0.000000,512.000000) scale(0.100000,-0.100000)"
fill="#000000" stroke="none">
<path d="M3997 3472 c-17 -3 -17 -14 -11 -150 4 -81 7 -181 6 -222 -3 -136
-33 -239 -74 -261 -35 -19 -166 3 -183 30 -6 10 -18 78 -31 170 -5 40 -11 191
-13 364 -1 60 -3 67 -21 67 -11 0 -20 -3 -21 -7 0 -5 -2 -17 -5 -28 -6 -31 -5
-312 1 -380 16 -160 23 -189 54 -217 39 -35 86 -47 176 -45 57 2 78 6 95 22
l22 20 -6 -155 c-3 -85 -8 -175 -11 -200 -15 -105 -36 -186 -52 -197 -27 -21
-120 -16 -169 9 -36 17 -46 19 -59 8 -17 -14 -7 -33 26 -51 31 -16 138 -26
190 -18 65 10 84 32 99 117 7 37 15 76 17 87 3 11 7 133 9 270 2 138 7 273 12
301 16 96 0 440 -21 460 -7 6 -20 9 -30 6z"/>
<path d="M1955 3398 c-9 -79 -11 -94 -19 -140 -3 -21 -9 -55 -12 -75 -4 -33
-68 -355 -80 -408 -3 -11 -7 -31 -10 -45 -3 -14 -12 -54 -20 -90 -9 -36 -18
-76 -20 -90 -3 -14 -11 -53 -19 -86 -8 -34 -16 -73 -19 -85 -4 -23 -21 -94
-32 -131 -4 -13 0 -18 15 -18 12 0 21 3 21 8 0 4 12 54 25 112 14 58 43 186
65 284 22 99 42 181 44 184 3 2 50 5 106 6 95 2 101 1 105 -18 18 -89 25 -126
29 -156 4 -19 8 -46 11 -60 3 -14 7 -38 10 -55 2 -16 7 -41 10 -55 2 -14 10
-50 16 -80 16 -78 38 -162 44 -168 3 -3 10 -1 16 5 7 7 3 46 -15 129 -36 173
-88 456 -83 460 6 6 51 12 95 13 30 1 42 5 39 14 -2 8 -25 11 -75 9 -64 -3
-72 -1 -73 15 0 10 -2 25 -4 33 -1 8 -5 32 -9 52 -3 21 -11 59 -17 85 -6 27
-13 59 -15 73 -18 103 -59 281 -71 308 -9 18 -23 32 -33 32 -14 0 -19 -12 -25
-62z m95 -306 c31 -155 43 -235 36 -237 -22 -7 -186 -12 -186 -6 0 4 15 86 34
182 18 95 37 199 42 229 4 30 9 58 10 63 1 4 2 13 4 20 3 23 13 -17 60 -251z"/>
<path d="M2366 3440 c-22 -3 -41 -11 -44 -18 -3 -11 15 -13 87 -9 119 5 226
-9 271 -34 67 -38 85 -94 85 -259 -1 -106 -23 -171 -73 -216 -31 -27 -100 -52
-164 -60 l-45 -6 0 204 c0 336 0 340 -20 336 -21 -4 -19 17 -27 -378 -8 -472
-7 -753 3 -763 5 -5 17 -7 25 -4 18 7 18 0 18 323 l1 232 40 -4 c58 -6 120
-46 150 -96 52 -90 61 -150 67 -445 0 -7 11 -13 25 -13 25 0 29 7 27 55 0 11
-1 64 -3 119 -4 192 -61 330 -161 383 l-36 19 55 19 c152 52 210 215 159 450
-18 85 -83 142 -181 160 -49 9 -205 12 -259 5z"/>
<path d="M644 3419 c-8 -13 33 -19 114 -16 42 1 72 -2 73 -8 1 -5 2 -21 4 -35
1 -14 5 -54 9 -90 4 -36 8 -78 10 -95 3 -16 7 -68 11 -115 4 -47 9 -101 11
-120 13 -91 11 -452 -2 -513 -17 -84 -42 -146 -63 -156 -26 -13 -109 -2 -151
19 -90 46 -132 142 -135 310 -2 91 -5 105 -20 108 -30 6 -38 -14 -37 -105 1
-120 37 -235 90 -290 80 -83 214 -112 295 -65 33 20 62 92 78 195 11 66 8 369
-5 497 -9 100 -25 234 -31 270 -2 14 -7 43 -10 65 -4 22 -8 45 -9 50 -2 6 -6
32 -11 58 l-7 48 -104 -2 c-57 -1 -107 -5 -110 -10z"/>
<path d="M3038 3423 c-10 -3 -18 -8 -19 -11 -2 -26 -8 -187 -14 -352 -11 -347
-15 -434 -20 -505 -16 -239 -17 -322 -1 -328 8 -3 17 -3 20 1 6 10 15 74 20
157 5 67 16 379 26 778 2 48 5 87 9 87 3 0 19 -46 34 -103 56 -206 203 -654
266 -812 29 -71 40 -90 56 -90 18 0 20 7 22 81 1 45 4 126 7 180 3 55 8 151
11 214 9 184 14 275 30 535 11 169 11 175 -14 175 -34 0 -37 -14 -46 -240 -4
-91 -8 -185 -10 -210 -5 -78 -18 -463 -18 -523 1 -32 -1 -56 -4 -53 -17 17
-283 820 -308 931 -1 6 -5 27 -10 48 -8 41 -12 45 -37 40z"/>
<path d="M1095 3183 c3 -208 12 -534 20 -718 2 -33 4 -97 5 -143 3 -95 7 -101
85 -96 28 1 121 3 208 3 129 1 157 4 157 15 0 24 -35 28 -219 25 l-176 -4 -1
25 c-1 14 -5 84 -8 155 -3 72 -9 180 -12 241 l-6 111 96 -2 c96 -2 134 7 107
24 -7 5 -55 7 -107 6 l-94 -3 -1 47 c-4 186 -20 504 -25 513 -3 4 47 8 110 8
64 0 116 4 116 9 0 16 -31 21 -145 21 l-112 0 2 -237z"/>
<path d="M4491 2537 c-18 -7 -51 -28 -72 -46 -127 -106 -112 -296 29 -390 l43
-28 -73 -27 c-204 -72 -201 -72 -374 -70 -116 2 -177 7 -220 19 -32 10 -156
46 -274 82 -210 63 -217 64 -330 64 -90 0 -128 -4 -173 -20 -65 -23 -144 -39
-272 -56 -27 -3 -77 -17 -110 -30 -33 -13 -98 -33 -145 -44 -265 -61 -376 -46
-690 94 -41 19 -91 37 -110 40 -41 8 -204 8 -240 0 -14 -3 -38 -8 -55 -11 -16
-3 -89 -24 -160 -48 -256 -85 -572 -259 -671 -368 -33 -37 -35 -41 -19 -58 16
-18 19 -17 93 14 43 18 118 50 167 71 50 21 97 44 105 50 26 21 174 68 255 81
66 10 184 12 232 3 25 -5 100 -33 167 -63 144 -64 167 -72 271 -90 73 -13 232
-14 295 -2 106 20 227 50 263 66 24 11 110 31 190 45 81 14 166 33 189 41 24
9 84 17 134 19 112 4 222 -18 389 -75 279 -96 249 -90 451 -90 l183 0 138 44
c203 64 376 154 493 256 36 31 84 69 107 83 159 100 162 323 6 422 -52 33
-155 43 -212 22z m157 -52 c122 -52 161 -207 74 -303 -31 -35 -122 -70 -169
-66 -118 10 -202 153 -157 264 41 98 155 145 252 105z"/>
<path d="M4561 2438 c-5 -13 -20 -30 -34 -37 -27 -15 -39 -41 -27 -61 4 -7 30
-24 56 -39 53 -28 67 -55 35 -66 -27 -8 -69 4 -51 15 15 9 5 30 -15 30 -43 0
-52 -64 -11 -74 15 -4 22 -13 22 -28 -1 -31 31 -36 45 -6 5 13 25 30 42 38 44
21 50 69 11 99 -15 11 -32 21 -38 21 -6 0 -22 7 -35 16 l-24 17 24 13 c33 19
38 17 49 -12 7 -16 16 -24 28 -22 25 5 23 59 -3 73 -11 5 -20 17 -20 25 0 8
-10 16 -22 18 -17 2 -26 -3 -32 -20z"/>
</g>
</svg>
